<?xml version="1.0" encoding="UTF-8"?>
<svg id="Layer_2" data-name="Layer 2" xmlns="http://www.w3.org/2000/svg" viewBox="0 0 118.11 72.36">
  <defs>
    <style>
      .cls-1 { fill: #0000FF; }
      @media (prefers-color-scheme: dark) {
        .cls-1 { fill: #6666FF; }
      }
    </style>
  </defs>
  <g id="Layer_1-2" data-name="Layer 1">
    <g>
      <path class="cls-1" d="M62.63,36.41c.06-.25-.16-.48-.41-.42-.05.01-.09.03-.11.05-.34.34-.9,2.08-1.14,2.69-.63,1.56-1.54,3.2-2.51,4.58-.08,1.21-.39,2.43-.46,3.64-.06,1.09.09,2.28,0,3.36-.04.44-.24.83-.29,1.2-.06.44.03.96,0,1.41-.15,1.73-.7,3.58-.82,5.31-.13,1.81.23,3.53-.09,5.37-.13.77-.58,1.1-.92,1.76-.74,1.42-.73,2.88-1.25,4.28-.06.15-.41.94-.47,1.02-.08.1-.34.19-.46.21-.72.12-4.03.12-4.53.02-.02,0-.33-.32-.34-.35-.06-.18-.02-.42.04-.6.1-.3.86-1.44,1.08-1.76,1.03-1.47,1.98-2.8,2.66-4.52.46-1.16,1.15-4.54,1.06-5.73-.07-.95-.22-2.02-.41-2.95-.2-1.03-.25-1.45-.34-2.5-.13-1.63-.53-2.75-.8-4.28-.19-1.04-.16-2.26-.41-3.25-.12-.46-.32-.75-.73-.99-.05-.07-.13.04-.14.08-.06.22.07.79.06,1.11-.03,1.08-.37,2.29-.45,3.36-.1,1.41.08,2.87.07,4.26,0,2.17.05,4.07-.21,6.21-.19,1.53.06,2.52.07,3.95,0,1.1-.4,1.09-1.05,1.72-.9.86-.59,1.34-1.03,2.33-.21.48-.56.63-.72.93s-.08.69-.46.88c-.59.31-2.37.5-3.41.5-.72,0-1.35-.07-1.32-.37.04-.39,1.55-2.32,1.85-2.87.95-1.77,1.75-5.96,1.85-6.22.92-2.49.61-6.83,0-9.41-.46-1.94-1.27-3.52-2.12-5.28-.37-.76-.65-1.58-1.07-2.32-1.38-.4-2.85-.48-4.26-.79-2.25-.49-6.51-2.84-8.35-4.28-2.06-1.63-2.94-3.8-4.18-5.98-.46-.81-1-1.58-1.45-2.4-1.58-.1-2.98-.16-4.54-.48-2.99-.62-5.68-2.48-5.68-2.48,0,0-3.67-.55-5.15-1.13-.47-.19-.84-.52-1.27-.75-1.13.13-2.68.64-3.79.5-.49-.06-2.91-1.21-3.33-1.53-.69-.54-.46-.92-.61-1.63-.06-.32-.33-.85-.28-1.18.01-.07.4-.71.47-.8.17-.2.46-.31.61-.47,1.32-1.39,2.55-3.02,3.54-4.65.21-.34,1.22-1.77,1.47-2.05.18-.21.77-1.06.96-1.36.32-.51.9-.96,1.1-1.59.16-.49.14-1.16.37-1.65.19-.42,1.07-1.07,1.41-1.5.19-.25.82-1.22.91-1.48.14-.39,0-.88.19-1.23.15-.28.72-.41.87-.77.13-.3-.08-.54-.07-.83.04-1.18,2.1-.8,2.83-.55.77.26.91.85,1.49,1.13,2.43,1.17,3.59.61,6.09.42,2.62-.2,5.74-.28,8.37-.15.45.02,1.26.32,1.63.21.64-.2,6.04-1.87,8.97-2,1.72-.07,3.98-.11,5.69,0,.51.03,2.59.11,3.13.15,2.49.2,5.66.35,8.13-.02s4.75-.56,7.34-.73c1.95-.13,3.89-.27,5.83-.45,2.94-.27,5.63-.43,8.6-.15,2.11.2,4.27.47,6.36.74,1.75.22,3.4.78,5.14,1.06,4.01.64,8.07,1.03,12.12,1.34,2.06.16,4.14.28,6.2.45,1.8.15,3.59-.12,5.44.16.22.03.77.06,1.07.53.39.62,1.43,4.62,1.67,6.74.37,3.23.13,6.51-.36,9.71-.14.94-.67,4.14-1.25,5.04-1.31,2-3.18,3.68-3.73,6.13-.09.42-1.07,2.74-1.19,3.07-.22.61-.8,2.48-.79,3.03.06,1.97,1.3,5.1.64,6.83-.27.71-.87,1.22-1.24,1.89-.74,1.34-1.74,3.36-2.23,4.79-.86,2.47-1.44,4.81-2.88,7.06-1.1,1.72-2.38,3.53-3.13,5.46-.24.61-.37,1.44-.69,2-.27.44-.78.89-1.08,1.31-.54.76-1.44,2.36-1.61,3.25-.09.48.13.63-.37.98-1.09.74-4.57.73-5.89.53-.78-.12-.79-.83-.53-1.42.48-1.08,1.42-2.14,2.12-3.11.34-.47.62-1.08.95-1.51.24-.32.67-.58.87-.92.68-1.14,1.11-2.55,1.71-3.74.58-1.13,1.36-2.25,1.86-3.44.61-1.44,2.03-5.67,2.09-6.06.04-.31-.3-2.53-.42-2.86-.09-.25-1.32-1.49-1.59-1.62-1.53-.76-3.95-1.1-5.65-1.3-1.76-.2-3.53-.17-5.3-.38-4.75-.56-9.42-1.49-14.2-1.79-3.42-.22-6.98.04-10.39-.15-.72-.04-2.76-.32-3.11-1.17-.45-1.1,1.04-3.4,1.39-4.54.1-.34.63-1.47.71-1.81h0Z"/>
      <path class="cls-1" d="M115.62,28.71c.27.16.02.81-.08,1.05-.16.39-.48.83-.64,1.23-.39,1.03-.48,2.46-.61,3.57-.26,2.19-.82,4.5-.6,6.72.14,1.41,1.12,3.4,1.53,4.82.45,1.57.76,3.28,1.31,4.82.38,1.07,1.23,1.64,1.01,2.88-.03.19-.61,1.61-.71,1.74-.06.08-1.21,1.49-1.28,1.65-.63,1.37-.69,3.25-1.07,4.69-.41,1.59-1.65,1.68-2.32,3.06l-1.28,3.72c-.08.12-.56.28-.72.32-.83.22-3.67.09-4.55-.13-.39-.1-.34-.38-.29-.75.16-1.14,2.84-3.63,3.57-4.8.49-.8.56-1.42.8-2.27.38-1.33,1.35-4.37,1.22-5.63-.1-1-.67-1.75-1.2-2.54-.44-.65-.78-.76-.74-1.66.1-2.01,2.48-4.85,3.36-6.73.36-.77.54-1.35.35-2.2-.32-1.38-.99-2.55-1.16-4.08s.5-1.51.93-2.65c.33-.87.35-1.86.63-2.73.22-.67,1.25-2.99,1.65-3.51.13-.17.66-.75.88-.62h0Z"/>
    </g>
  </g>
</svg>
